<svg width="432" height="329" viewBox="0 0 432 329" fill="none" xmlns="http://www.w3.org/2000/svg">
<path d="M7.55514 25.2815C-18.9995 69.0002 56.5226 111.236 111.446 184.5C166.369 257.764 194.797 314.367 267.008 325C339.219 335.633 424.313 283.669 429.555 213.68C434.797 143.691 306.201 81.6037 224.211 45.0002C142.222 8.39678 34.1098 -18.4373 7.55514 25.2815Z" stroke="#F4F7F6" stroke-width="4"/>
<path d="M55.1242 56.9933C34.6327 90.7547 92.9109 123.371 135.293 179.949C177.676 236.526 199.613 280.237 255.336 288.448C311.059 296.66 376.724 256.531 380.769 202.482C384.814 148.434 285.58 100.488 222.311 72.2209C159.043 43.9542 75.6156 23.2318 55.1242 56.9933Z" stroke="#F4F7F6" stroke-width="3"/>
<path d="M118.456 99.1424C106.037 119.669 141.357 139.5 167.043 173.899C192.729 208.298 206.025 234.875 239.796 239.867C273.568 244.86 313.365 220.461 315.816 187.6C318.267 154.738 258.126 125.587 219.781 108.401C181.437 91.2147 130.875 78.6155 118.456 99.1424Z" stroke="#F4F7F6" stroke-width="2"/>
<path d="M163.275 129.249C156.569 140.323 175.641 151.021 189.512 169.578C203.383 188.136 210.562 202.473 228.799 205.166C247.035 207.859 268.526 194.697 269.849 176.969C271.173 159.241 238.697 143.515 217.991 134.244C197.285 124.972 169.981 118.175 163.275 129.249Z" stroke="#F4F7F6"/>
</svg>
