<svg width="56" height="56" viewBox="0 0 56 56" fill="none" xmlns="http://www.w3.org/2000/svg">
<rect width="56" height="56" rx="28" fill="#0C0C0C"/>
<path d="M28 22V20M28 22C26.8954 22 26 22.8954 26 24C26 25.1046 26.8954 26 28 26M28 22C29.1046 22 30 22.8954 30 24C30 25.1046 29.1046 26 28 26M22 34C23.1046 34 24 33.1046 24 32C24 30.8954 23.1046 30 22 30M22 34C20.8954 34 20 33.1046 20 32C20 30.8954 20.8954 30 22 30M22 34V36M22 30V20M28 26V36M34 34C35.1046 34 36 33.1046 36 32C36 30.8954 35.1046 30 34 30M34 34C32.8954 34 32 33.1046 32 32C32 30.8954 32.8954 30 34 30M34 34V36M34 30V20" stroke="white" stroke-width="2" stroke-linecap="round" stroke-linejoin="round"/>
</svg>
