<svg width="50" height="50" viewBox="0 0 50 50" fill="none" xmlns="http://www.w3.org/2000/svg">
<mask id="mask0_1_488" style="mask-type:luminance" maskUnits="userSpaceOnUse" x="2" y="2" width="46" height="46">
<path d="M2.5 2.5H47.5V47.5H2.5V2.5Z" fill="white"/>
</mask>
<g mask="url(#mask0_1_488)">
<path d="M42.7119 41.8569C39.0685 35.8941 32.4992 31.9141 25 31.9141M25 31.9141C17.5007 31.9141 10.9314 35.8941 7.28802 41.8569M25 31.9141C30.7277 31.9141 35.3711 27.2707 35.3711 21.543C35.3711 15.8152 30.7277 11.1719 25 11.1719C19.2722 11.1719 14.6289 15.8152 14.6289 21.543C14.6289 27.2707 19.2722 31.9141 25 31.9141ZM8.08273 7.3469L7.3469 8.08281C5.36893 10.0607 4.25781 12.7433 4.25781 15.5405V34.4595C4.25781 37.2567 5.36893 39.9393 7.3469 41.9173L8.08273 42.6531C10.0606 44.631 12.7433 45.7422 15.5405 45.7422H34.4594C37.2566 45.7422 39.9393 44.631 41.9172 42.6531L42.6531 41.9173C44.631 39.9393 45.7422 37.2567 45.7422 34.4595V15.5405C45.7422 12.7433 44.631 10.0607 42.6531 8.08281L41.9172 7.3469C39.9393 5.36901 37.2566 4.25781 34.4594 4.25781H15.5405C12.7433 4.25781 10.0606 5.36901 8.08273 7.3469Z" stroke="#091D2E" stroke-width="4" stroke-miterlimit="10" stroke-linecap="round" stroke-linejoin="round"/>
</g>
</svg>
