<svg width="24" height="25" viewBox="0 0 24 25" fill="none" xmlns="http://www.w3.org/2000/svg">
<path d="M8.47133 17.799C9.25103 17.799 9.88309 17.1669 9.88309 16.3872C9.88309 15.6075 9.25103 14.9755 8.47133 14.9755C7.69164 14.9755 7.05957 15.6075 7.05957 16.3872C7.05957 17.1669 7.69164 17.799 8.47133 17.799Z" stroke="#FDF8F4" stroke-width="2" stroke-miterlimit="10"/>
<path d="M8.47064 20.623C10.8097 20.623 12.7059 18.7268 12.7059 16.3878C12.7059 14.0487 10.8097 12.1525 8.47064 12.1525C6.13155 12.1525 4.23535 14.0487 4.23535 16.3878C4.23535 18.7268 6.13155 20.623 8.47064 20.623Z" stroke="#FDF8F4" stroke-width="2" stroke-miterlimit="10"/>
<path d="M0.705566 16.3877C0.705566 12.0994 4.18194 8.62299 8.47026 8.62299C11.1961 8.62299 13.5938 10.0276 14.9792 12.1524C15.4003 12.7982 15.7278 13.5104 15.9427 14.27L23.0008 7.21179" stroke="#FDF8F4" stroke-width="2" stroke-miterlimit="10"/>
<path d="M21.0196 3.83824C17.9873 0.805872 13.0709 0.805872 10.0386 3.83824L2.97981 10.8971C-0.0525144 13.9293 -0.0525144 18.8456 2.97981 21.8779C6.01213 24.9103 10.9285 24.9103 13.9608 21.8779L21.0196 14.8191C24.0519 11.7869 24.0519 6.87052 21.0196 3.83824Z" stroke="#FDF8F4" stroke-width="2" stroke-miterlimit="10"/>
</svg>
