<svg width="24" height="25" viewBox="0 0 24 25" fill="none" xmlns="http://www.w3.org/2000/svg">
<g clip-path="url(#clip0_34_2164)">
<mask id="mask0_34_2164" style="mask-type:luminance" maskUnits="userSpaceOnUse" x="0" y="0" width="24" height="25">
<path d="M23 23.8579V1.85791H1V23.8579H23Z" fill="white" stroke="white" stroke-width="2"/>
</mask>
<g mask="url(#mask0_34_2164)">
<path d="M19.0312 19.936C18.3344 19.936 17.6869 20.1211 17.1077 20.4203C16.2209 18.4791 14.2737 17.1235 12 17.1235C9.72637 17.1235 7.77909 18.4791 6.89231 20.4203C6.31313 20.1211 5.66559 19.936 4.96875 19.936C2.63878 19.936 0.703125 21.8248 0.703125 24.1548H23.2969C23.2969 21.8248 21.3612 19.936 19.0312 19.936Z" stroke="white" stroke-width="2" stroke-miterlimit="10"/>
<path d="M0.806152 3.17319C0.806152 3.17319 1.25114 2.48699 2.43951 1.98266C3.59807 1.5043 5.69981 1.14355 8.328 2.58866C10.4579 3.82879 12.2425 6.10832 10.3668 8.28008C6.4484 8.35335 4.17487 7.23107 1.9409 4.75063C1.16259 3.8968 0.806152 3.17319 0.806152 3.17319Z" stroke="white" stroke-width="2" stroke-miterlimit="10"/>
<path d="M23.1782 3.17319C23.1782 3.17319 22.7021 2.48699 21.5137 1.98266C20.3551 1.5043 18.3003 1.14355 15.672 2.58866C13.5421 3.82879 11.7575 6.10832 13.6332 8.28008C17.5517 8.35335 19.7783 7.23107 22.0123 4.75063C22.7906 3.8968 23.1782 3.17319 23.1782 3.17319Z" stroke="white" stroke-width="2" stroke-miterlimit="10"/>
<path d="M18.5106 4.32026C16.5412 5.11859 14.7579 6.46147 13.6311 8.27966C12.4789 10.0842 12.0336 12.2443 11.9987 14.3679C11.9638 12.2443 11.5185 10.0842 10.3663 8.27966C9.23949 6.46147 7.45613 5.11859 5.48682 4.32026" stroke="white" stroke-width="2" stroke-miterlimit="10"/>
<path d="M12 14.2173V17.1235" stroke="white" stroke-width="2" stroke-miterlimit="10"/>
</g>
</g>
<defs>
<clipPath id="clip0_34_2164">
<rect width="24" height="24" fill="white" transform="translate(0 0.85791)"/>
</clipPath>
</defs>
</svg>
