<svg width="19" height="24" viewBox="0 0 19 24" fill="none" xmlns="http://www.w3.org/2000/svg">
<path fill-rule="evenodd" clip-rule="evenodd" d="M15.5626 18.3234H4.77542C4.46223 18.3234 4.17712 18.1979 3.97015 17.9958C3.76325 17.7937 3.63477 17.5153 3.63477 17.2093V2.03952C3.63477 1.73358 3.76325 1.45527 3.97015 1.25299C4.17712 1.05085 4.46223 0.925507 4.77542 0.925507H13.7786L18.5652 4.57323V17.2093C18.5652 17.5153 18.4368 17.7937 18.2298 17.9958C18.0229 18.1979 17.7377 18.3234 17.4244 18.3234H15.5626Z" fill="white"/>
<path fill-rule="evenodd" clip-rule="evenodd" d="M4.77552 0.5H13.9259L19.001 4.36752V17.2093C19.001 18.0561 18.2916 18.7489 17.4245 18.7489H8.74877V18.3234H17.4245C17.7378 18.3234 18.023 18.1979 18.2299 17.9958C18.4369 17.7937 18.5653 17.5153 18.5653 17.2093V4.57319L13.7787 0.92547H4.77552C4.46233 0.92547 4.17722 1.05081 3.97024 1.25295C3.76334 1.45523 3.63486 1.73354 3.63486 2.03949V5.14706H3.19922V2.03949C3.19922 1.19263 3.90856 0.5 4.77552 0.5ZM3.63486 10.5679V17.2093C3.63486 17.5153 3.76334 17.7937 3.97024 17.9958C4.17722 18.1979 4.46233 18.3234 4.77552 18.3234H8.74877V18.7489H4.77552C3.90856 18.7489 3.19922 18.0561 3.19922 17.2093V10.5679H3.63486Z" fill="black"/>
<path fill-rule="evenodd" clip-rule="evenodd" d="M13.4529 0.730469C13.2877 1.69505 14.1148 3.8825 14.8811 4.55138C15.8633 5.4089 17.3231 5.49754 18.8587 4.78489V4.59799C17.1669 3.30884 15.4752 2.01969 13.7836 0.730469H13.4529Z" fill="white"/>
<path fill-rule="evenodd" clip-rule="evenodd" d="M13.8887 1.54335C13.9378 1.91245 14.059 2.3553 14.2222 2.79192C14.4828 3.48899 14.8397 4.14208 15.1703 4.43071C15.5861 4.79379 16.1071 4.99406 16.6898 5.02827C17.1484 5.05528 17.6463 4.98028 18.1646 4.80175L13.8887 1.54335ZM13.4529 0.925507C13.2877 1.89008 14.1148 4.07754 14.8811 4.74642C15.8633 5.60394 17.3231 5.69258 18.8587 4.97993V4.79303L13.7836 0.925507H13.4529Z" fill="black"/>
<path fill-rule="evenodd" clip-rule="evenodd" d="M0 5.76758H10.1256V9.94741H0V5.76758Z" fill="black"/>
<path d="M1.98047 9.00581V6.70894H2.86735C3.02476 6.70894 3.14303 6.71531 3.22528 6.73138C3.34355 6.75077 3.43885 6.78594 3.5177 6.83719C3.59654 6.89176 3.65894 6.96544 3.70489 7.05851C3.75395 7.15491 3.77721 7.2574 3.77721 7.3729C3.77721 7.56542 3.71481 7.73217 3.58662 7.86707C3.45842 8.00169 3.22869 8.069 2.89685 8.069H2.29245V9.00581H1.98047ZM2.29245 7.79976H2.89997C3.10049 7.79976 3.24485 7.7643 3.33051 7.69062C3.41247 7.61666 3.4553 7.51417 3.4553 7.37927C3.4553 7.28648 3.43233 7.20283 3.37957 7.13552C3.33051 7.06488 3.26471 7.02001 3.18586 6.99757C3.13339 6.98483 3.03469 6.97846 2.89345 6.97846H2.29245V7.79976Z" fill="white"/>
<path d="M4.17188 9.00602V6.70915H4.98303C5.1637 6.70915 5.30494 6.71885 5.40024 6.74128C5.53496 6.77342 5.64983 6.82798 5.74512 6.90471C5.86992 7.00748 5.96181 7.13905 6.02421 7.29944C6.0866 7.45649 6.11638 7.63931 6.11638 7.84485C6.11638 8.01797 6.09653 8.1753 6.05399 8.30993C6.01116 8.44455 5.95869 8.55368 5.89289 8.64343C5.82737 8.73013 5.75817 8.80077 5.67932 8.85201C5.60048 8.90326 5.50858 8.94176 5.40024 8.96752C5.28849 8.99328 5.1637 9.00602 5.01934 9.00602H4.17188ZM4.48386 8.7365H4.98644C5.14073 8.7365 5.2624 8.72376 5.35089 8.69495C5.43966 8.66587 5.50858 8.62737 5.56105 8.57612C5.63338 8.50244 5.69265 8.40604 5.73208 8.28417C5.77462 8.16229 5.79447 8.01465 5.79447 7.84152C5.79447 7.60109 5.75505 7.41494 5.6728 7.28669C5.59395 7.15512 5.49554 7.06842 5.38067 7.02687C5.29502 6.99474 5.1637 6.97867 4.97651 6.97867H4.48386V8.7365Z" fill="white"/>
<path d="M6.56055 9.00602V6.70915H8.14684V6.97867H6.87253V7.69388H7.9761V7.9634H6.87253V9.00602H6.56055Z" fill="white"/>
</svg>
